<svg width="32" height="32" viewBox="0 0 32 32" fill="none" xmlns="http://www.w3.org/2000/svg">
<path d="M16.2 29.0667C15.7333 29.0667 15.2667 29.0667 14.8 29C7.6 28.2667 2.4 21.8 3.2 14.6667C3.4 12.6667 4.06667 10.8667 5.06667 9.2C5.33333 8.8 5.8 8.66667 6.2 8.93334C6.6 9.2 6.73333 9.66667 6.46667 10.0667C5.53333 11.5333 5 13.1333 4.8 14.8667C4.2 21.0667 8.73333 26.6667 14.9333 27.3333C17.9333 27.6667 20.9333 26.8 23.2667 24.8667C25.6 22.9333 27.1333 20.2667 27.4667 17.2667C28.1333 11.0667 23.6 5.4 17.4 4.73334C14.8667 4.46667 12.4 5 10.2667 6.33334C9.86667 6.6 9.33333 6.46667 9.13333 6.06667C8.86667 5.66667 9 5.13334 9.4 4.93334C11.8667 3.4 14.7333 2.8 17.6 3.06667C24.6667 3.86667 29.8667 10.2667 29.1333 17.4667C28.7333 20.9333 27.0667 24.0667 24.3333 26.2C22 28.0667 19.1333 29.0667 16.2 29.0667Z" fill="#D8D8D8"/>
<path d="M10.8 22.4667C10.6 22.4667 10.4 22.4 10.2 22.2C10 22 9.93334 21.6667 10 21.4L12.5333 13.6667C12.6 13.4 12.8 13.2 13.0667 13.1333L20.9333 10.4667C21.2 10.3333 21.5333 10.4667 21.8 10.6667C22 10.8667 22.1333 11.2 22 11.5333L19.3333 19.4C19.2667 19.6667 19.0667 19.8667 18.8 19.9333L11.0667 22.4667C11 22.4667 10.9333 22.4667 10.8 22.4667ZM14 14.6L12.1333 20.4L17.8667 18.4667L19.8667 12.6L14 14.6Z" fill="#D8D8D8"/>
</svg>
