<svg width="24" height="24" viewBox="0 0 24 24" fill="none" xmlns="http://www.w3.org/2000/svg">
<path fill-rule="evenodd" clip-rule="evenodd" d="M11.3636 1.63636C11.3636 1.28491 11.6485 1 11.9999 1C12.3514 1 12.6363 1.28491 12.6363 1.63636V2.93819C16.2041 3.25966 19 6.25815 19 9.90965V16.2732C19 20.1393 15.866 23.2732 12 23.2732C8.21388 23.2732 5.1298 20.2674 5.00399 16.5119H6.27761C6.40272 19.5644 8.91686 22.0005 12 22.0005C15.1631 22.0005 17.7273 19.4363 17.7273 16.2732V9.90965C17.7273 6.74657 15.1631 4.18238 12 4.18238C8.83692 4.18238 6.27273 6.74655 6.27273 9.90964V13.8073H5V9.90964C5 6.25818 7.79583 3.25973 11.3636 2.93819V1.63636ZM11.3636 7.36364C11.3636 7.01219 11.6485 6.72727 11.9999 6.72727C12.3514 6.72727 12.6363 7.01219 12.6363 7.36364V11.1818C12.6363 11.5333 12.3514 11.8182 11.9999 11.8182C11.6485 11.8182 11.3636 11.5333 11.3636 11.1818V7.36364Z" fill="white"/>
</svg>
