<svg width="24" height="24" viewBox="0 0 24 24" fill="none" xmlns="http://www.w3.org/2000/svg">
<path fill-rule="evenodd" clip-rule="evenodd" d="M18.6522 10.7828L11.171 18.264C9.69319 19.7418 7.2961 19.9752 5.6839 18.6458C3.83128 17.1185 3.73936 14.382 5.39399 12.7273L14.1338 3.98749C15.0601 3.06118 16.5663 2.88441 17.5774 3.71172C18.7442 4.66632 18.8078 6.38459 17.7684 7.42403L10.3437 14.8487C9.95482 15.2376 9.31843 15.2376 8.92952 14.8487C8.54061 14.4597 8.54061 13.8234 8.92952 13.4344L15.1167 7.24726C15.4066 6.95734 15.4066 6.47651 15.1167 6.1866C14.8268 5.89668 14.346 5.89668 14.056 6.1866L7.96785 12.2748C7.04155 13.2011 6.86477 14.7072 7.69208 15.7184C8.64668 16.8851 10.3649 16.9488 11.4044 15.9093L18.7088 8.6049C20.1867 7.12705 20.42 4.72996 19.0906 3.11775C17.5704 1.27221 14.8268 1.17321 13.1722 2.82784L4.49596 11.504C2.46656 13.5334 2.13422 16.8356 3.96563 19.0489C6.07988 21.5874 9.83462 21.7217 12.1115 19.4448L19.7129 11.8435C20.0028 11.5535 20.0028 11.0727 19.7129 10.7828C19.423 10.4929 18.9422 10.4929 18.6522 10.7828Z" fill="url(#paint0_linear)"/>
<defs>
<linearGradient id="paint0_linear" x1="13.2617" y1="2.7383" x2="18.9772" y2="15.8038" gradientUnits="userSpaceOnUse">
<stop stop-color="#FF8970"/>
<stop offset="1" stop-color="#FFB571"/>
</linearGradient>
</defs>
</svg>
