<svg width="24" height="24" viewBox="0 0 24 24" fill="none" xmlns="http://www.w3.org/2000/svg">
<path fill-rule="evenodd" clip-rule="evenodd" d="M22 12C22 12.5523 21.4404 13 20.75 13L3.25 13C2.55964 13 2 12.5523 2 12C2 11.4477 2.55964 11 3.25 11L20.75 11C21.4404 11 22 11.4477 22 12Z" fill="#FD6561"/>
<path fill-rule="evenodd" clip-rule="evenodd" d="M22 6C22 6.55228 21.4404 7 20.75 7L3.25 7C2.55964 7 2 6.55228 2 6C2 5.44771 2.55964 5 3.25 5L20.75 5C21.4404 5 22 5.44772 22 6Z" fill="#FD6561"/>
<path fill-rule="evenodd" clip-rule="evenodd" d="M22 18C22 18.5523 21.4404 19 20.75 19L3.25 19C2.55964 19 2 18.5523 2 18C2 17.4477 2.55964 17 3.25 17L20.75 17C21.4404 17 22 17.4477 22 18Z" fill="#FD6561"/>
</svg>
